<svg xmlns="http://www.w3.org/2000/svg" version="1.1" xmlns:xlink="http://www.w3.org/1999/xlink" xmlns:svgjs="http://svgjs.dev/svgjs" width="2000" height="449" viewBox="0 0 2000 449"><g transform="matrix(1,0,0,1,-1.2121212121212466,-0.23954163269408468)"><svg viewBox="0 0 396 89" data-background-color="#ffffff" preserveAspectRatio="xMidYMid meet" height="449" width="2000" xmlns="http://www.w3.org/2000/svg" xmlns:xlink="http://www.w3.org/1999/xlink"><g id="tight-bounds" transform="matrix(1,0,0,1,0.2400000000000091,0.04748152630239133)"><svg viewBox="0 0 395.52 88.9050369473952" height="88.9050369473952" width="395.52"><g><svg viewBox="0 0 536.7914402841363 120.66004963467495" height="88.9050369473952" width="395.52"><g transform="matrix(1,0,0,1,0,16.675882402476788)"><svg viewBox="0 0 395.52000000000004 87.30828482972137" height="87.30828482972137" width="395.52000000000004"><g id="textblocktransform"><svg viewBox="0 0 395.52000000000004 87.30828482972137" height="87.30828482972137" width="395.52000000000004" id="textblock"><g><svg viewBox="0 0 395.52000000000004 87.30828482972137" height="87.30828482972137" width="395.52000000000004"><g transform="matrix(1,0,0,1,0,0)"><svg width="395.52000000000004" viewBox="0.6 -35.05 161.48000000000002 35.65" height="87.30828482972137" data-palette-color="#97978d"><path d="M24.1 0L19.55-13.4 6.85-13.4 2.25 0 0.6 0 12.5-35 13.85-35 25.85 0 24.1 0ZM13.15-32.2L7.35-15 19.05-15 13.15-32.2ZM30.25 0L30.25-35 31.85-35 31.85 0 30.25 0ZM54.34-1.75Q52.55-0.6 50.24 0 47.95 0.6 45.64 0.6L45.64 0.6Q41.95 0.6 39.77-1.23 37.59-3.05 37.59-6.7L37.59-6.7 37.59-16.95Q37.59-21 40.12-23.25 42.64-25.5 46.8-25.5L46.8-25.5Q50.95-25.5 53.27-23.28 55.59-21.05 55.59-17.1L55.59-17.1 55.59-11.75 39.2-10.9 39.2-6.65Q39.2-3.8 41.02-2.3 42.84-0.8 45.8-0.8L45.8-0.8Q47.59-0.8 49.62-1.38 51.64-1.95 53.64-3.05L53.64-3.05 54.34-1.75ZM54-17.25Q54-20.9 51.8-22.48 49.59-24.05 46.74-24.05L46.74-24.05Q43.59-24.05 41.39-22.33 39.2-20.6 39.2-16.95L39.2-16.95 39.2-12.45 54-13.25 54-17.25ZM74.39 0L67.69-11.05 60.74 0 58.89 0 66.74-12.5 59.09-25.05 60.94-25.05 67.69-13.9 74.54-25.05 76.34-25.05 68.64-12.5 76.24 0 74.39 0ZM96.94 0L96.94-35.05 106.34-35.05Q111.99-35.05 114.96-31.95 117.94-28.85 117.94-23.7L117.94-23.7 117.94-10Q117.94 0 107.34 0L107.34 0 96.94 0ZM116.34-23.7Q116.34-27.05 114.99-29.25 113.64-31.45 111.49-32.45 109.34-33.45 106.84-33.45L106.84-33.45 98.54-33.45 98.54-1.5 106.74-1.5Q110.74-1.5 113.54-3.18 116.34-4.85 116.34-10.3L116.34-10.3 116.34-23.7ZM140.34-1.75Q138.54-0.6 136.24 0 133.94 0.6 131.64 0.6L131.64 0.6Q127.94 0.6 125.76-1.23 123.59-3.05 123.59-6.7L123.59-6.7 123.59-16.95Q123.59-21 126.11-23.25 128.64-25.5 132.79-25.5L132.79-25.5Q136.94-25.5 139.26-23.28 141.59-21.05 141.59-17.1L141.59-17.1 141.59-11.75 125.19-10.9 125.19-6.65Q125.19-3.8 127.01-2.3 128.84-0.8 131.79-0.8L131.79-0.8Q133.59-0.8 135.61-1.38 137.64-1.95 139.64-3.05L139.64-3.05 140.34-1.75ZM139.99-17.25Q139.99-20.9 137.79-22.48 135.59-24.05 132.74-24.05L132.74-24.05Q129.59-24.05 127.39-22.33 125.19-20.6 125.19-16.95L125.19-16.95 125.19-12.45 139.99-13.25 139.99-17.25ZM151.53 0L142.83-25.05 144.48-25.05 152.43-2.2 160.43-25.05 162.08-25.05 153.33 0 151.53 0Z" opacity="1" transform="matrix(1,0,0,1,0,0)" fill="#ffffff" class="wordmark-text-0" data-fill-palette-color="primary" id="text-0"></path></svg></g></svg></g></svg></g></svg></g><g transform="matrix(1,0,0,1,416.13139064946137,0)"><svg viewBox="0 0 120.66004963467495 120.66004963467495" height="120.66004963467495" width="120.66004963467495"><g data-palette-color="#97978d"><rect width="32.98041356681116" height="120.66004963467495" fill="#ffffff" stroke="transparent" data-fill-palette-color="accent" x="0" fill-opacity="1"></rect><rect width="32.98041356681116" height="120.66004963467495" fill="#ffffff" stroke="transparent" data-fill-palette-color="accent" x="40.22001654489166" fill-opacity="0.75"></rect><rect width="32.98041356681116" height="120.66004963467495" fill="#ffffff" stroke="transparent" data-fill-palette-color="accent" x="80.44003308978331" fill-opacity="0.5"></rect></g></svg></g></svg></g><defs></defs></svg><rect width="395.52" height="88.9050369473952" fill="none" stroke="none" visibility="hidden"></rect></g></svg></g></svg>